<?xml version="1.0" standalone="no"?>
<!DOCTYPE svg PUBLIC "-//W3C//DTD SVG 1.1//EN" "http://www.w3.org/Graphics/SVG/1.1/DTD/svg11.dtd">
<svg t="1560841305433" class="icon" style="" viewBox="0 0 1024 1024" version="1.1" xmlns="http://www.w3.org/2000/svg" p-id="2052" xmlns:xlink="http://www.w3.org/1999/xlink" width="200" height="200">
  <defs>
    <style type="text/css"></style>
  </defs>
  <path d="M672 352h160a32 32 0 0 1 0 64h-192a32 32 0 0 1-32-32V192a32 32 0 0 1 64 0z" p-id="2053"></path>
  <path d="M662.72 406.72a32 32 0 0 1-45.44-45.44l224-224a32 32 0 1 1 45.44 45.44zM352 352V192a32 32 0 0 1 64 0v192a32 32 0 0 1-32 32H192a32 32 0 0 1 0-64z" p-id="2054"></path>
  <path d="M406.72 361.28a32 32 0 0 1-45.44 45.44l-224-224a32 32 0 0 1 45.44-45.44zM672 672v160a32 32 0 0 1-64 0v-192a32 32 0 0 1 32-32h192a32 32 0 0 1 0 64z" p-id="2055"></path>
  <path d="M617.28 662.72a32 32 0 0 1 45.44-45.44l224 224a32 32 0 0 1-45.44 45.44zM192 672a32 32 0 0 1 0-64h192a32 32 0 0 1 32 32v192a32 32 0 0 1-64 0v-160z" p-id="2056"></path>
  <path d="M361.28 617.28a32 32 0 0 1 45.44 45.44l-224 224a32 32 0 0 1-45.44-45.44z" p-id="2057"></path>
</svg>